<svg width="33" height="23" viewBox="0 0 33 23" fill="none" xmlns="http://www.w3.org/2000/svg">
  <path d="M31.5077 3.9394C31.3307 3.27298 30.9818 2.66474 30.4959 2.17561C30.0099 1.68648 29.4039 1.33363 28.7387 1.1524C26.2957 0.4944 16.5037 0.4944 16.5037 0.4944C16.5037 0.4944 6.71066 0.4944 4.26866 1.1534C3.60278 1.33393 2.99607 1.68636 2.50937 2.17534C2.02266 2.66433 1.67308 3.27268 1.49566 3.9394C1.04435 6.44285 0.825423 8.98265 0.841661 11.5264C0.825423 14.0701 1.04435 16.61 1.49566 19.1134C1.674 19.7742 2.02415 20.3761 2.51051 20.8577C2.99688 21.3393 3.60211 21.6835 4.26466 21.8554C6.70666 22.5144 16.4997 22.5144 16.4997 22.5144C16.4997 22.5144 26.2927 22.5144 28.7347 21.8554C29.3972 21.6835 30.0024 21.3393 30.4888 20.8577C30.9752 20.3761 31.3253 19.7742 31.5037 19.1134C31.955 16.61 32.1739 14.0701 32.1577 11.5264C32.1739 8.98265 31.955 6.44285 31.5037 3.9394H31.5077ZM13.3007 16.1824V6.8704L21.4857 11.5264L13.3007 16.1824Z" fill="#44AFCB"/>
</svg>
