<svg width="28" height="27" viewBox="0 0 28 27" fill="none" xmlns="http://www.w3.org/2000/svg">
  <path d="M26.3498 0.00439453H2.33182C1.93638 0.00439453 1.55714 0.161481 1.27752 0.441098C0.997907 0.720715 0.84082 1.09996 0.84082 1.49539V25.5134C0.84082 25.9088 0.997907 26.2881 1.27752 26.5677C1.55714 26.8473 1.93638 27.0044 2.33182 27.0044H14.3408V16.3174H11.1138V12.3794H14.3408V9.46839C14.3408 5.98039 16.7598 4.08239 19.8748 4.08239C21.3658 4.08239 22.9688 4.19539 23.3408 4.24439V7.88639H20.8588C19.1638 7.88639 18.8408 8.68639 18.8408 9.86939V12.3794H22.8768L22.3498 16.3174H18.8408V27.0044H26.3498C26.7453 27.0044 27.1245 26.8473 27.4041 26.5677C27.6837 26.2881 27.8408 25.9088 27.8408 25.5134V1.49539C27.8408 1.09996 27.6837 0.720715 27.4041 0.441098C27.1245 0.161481 26.7453 0.00439453 26.3498 0.00439453Z" fill="#44AFCB"/>
</svg>
