<svg width="28" height="27" viewBox="0 0 28 27" fill="none" xmlns="http://www.w3.org/2000/svg">
  <g clip-path="url(#clip0_5732_72286)">
    <path fill-rule="evenodd" clip-rule="evenodd" d="M3.84082 27.0044H24.8408C26.4977 27.0044 27.8408 25.6612 27.8408 24.0044V3.00439C27.8408 1.34754 26.4977 0.00439453 24.8408 0.00439453H3.84082C2.18397 0.00439453 0.84082 1.34754 0.84082 3.00439V24.0044C0.84082 25.6612 2.18397 27.0044 3.84082 27.0044Z" fill="#44AFCB"/>
    <path fill-rule="evenodd" clip-rule="evenodd" d="M24.0908 23.2544H20.0842V16.4302C20.0842 14.5592 19.3732 13.5136 17.8923 13.5136C16.2813 13.5136 15.4396 14.6017 15.4396 16.4302V23.2544H11.5783V10.2544H15.4396V12.0055C15.4396 12.0055 16.6006 9.85723 19.3593 9.85723C22.1167 9.85723 24.0908 11.5411 24.0908 15.0236V23.2544ZM6.97183 8.55215C5.65659 8.55215 4.59082 7.47802 4.59082 6.15327C4.59082 4.82853 5.65659 3.75439 6.97183 3.75439C8.28706 3.75439 9.3522 4.82853 9.3522 6.15327C9.3522 7.47802 8.28706 8.55215 6.97183 8.55215ZM4.97803 23.2544H9.00435V10.2544H4.97803V23.2544Z" fill="#1C3840"/>
  </g>
  <defs>
    <clipPath id="clip0_5732_72286">
      <rect width="27" height="27" fill="white" transform="translate(0.84082 0.00439453)"/>
    </clipPath>
  </defs>
</svg>
