<svg width="28" height="27" viewBox="0 0 28 27" fill="none" xmlns="http://www.w3.org/2000/svg">
  <path d="M19.9658 2.25439C21.4563 2.25888 22.8844 2.85295 23.9383 3.90687C24.9923 4.96079 25.5863 6.38893 25.5908 7.87939V19.1294C25.5863 20.6199 24.9923 22.048 23.9383 23.1019C22.8844 24.1558 21.4563 24.7499 19.9658 24.7544H8.71582C7.22536 24.7499 5.79722 24.1558 4.7433 23.1019C3.68938 22.048 3.0953 20.6199 3.09082 19.1294V7.87939C3.0953 6.38893 3.68938 4.96079 4.7433 3.90687C5.79722 2.85295 7.22536 2.25888 8.71582 2.25439H19.9658ZM19.9658 0.00439453H8.71582C6.62927 0.0109872 4.63006 0.842789 3.15464 2.31821C1.67922 3.79363 0.847413 5.79284 0.84082 7.87939V19.1294C0.847413 21.2159 1.67922 23.2152 3.15464 24.6906C4.63006 26.166 6.62927 26.9978 8.71582 27.0044H19.9658C22.0524 26.9978 24.0516 26.166 25.527 24.6906C27.0024 23.2152 27.8342 21.2159 27.8408 19.1294V7.87939C27.8342 5.79284 27.0024 3.79363 25.527 2.31821C24.0516 0.842789 22.0524 0.0109872 19.9658 0.00439453Z" fill="#44AFCB"/>
  <path d="M21.6529 7.87939C21.3189 7.87959 20.9924 7.78073 20.7147 7.59533C20.4369 7.40992 20.2204 7.1463 20.0926 6.83782C19.9647 6.52934 19.9312 6.18985 19.9963 5.86232C20.0614 5.53479 20.2221 5.23392 20.4583 4.99779C20.6944 4.76166 20.9953 4.60087 21.3228 4.53577C21.6503 4.47067 21.9898 4.50419 22.2983 4.63207C22.6068 4.75996 22.8704 4.97647 23.0558 5.25421C23.2412 5.53195 23.3401 5.85845 23.3399 6.19239C23.3404 6.41408 23.2971 6.63368 23.2125 6.8386C23.1279 7.04351 23.0037 7.2297 22.8469 7.38645C22.6902 7.54321 22.504 7.66745 22.2991 7.75205C22.0942 7.83664 21.8746 7.87992 21.6529 7.87939Z" fill="#44AFCB"/>
  <path d="M14.3408 9.00439C15.2308 9.00439 16.1009 9.26831 16.8409 9.76278C17.5809 10.2572 18.1577 10.9601 18.4983 11.7823C18.8389 12.6046 18.928 13.5094 18.7544 14.3823C18.5807 15.2552 18.1521 16.057 17.5228 16.6864C16.8935 17.3157 16.0916 17.7443 15.2187 17.9179C14.3458 18.0916 13.441 18.0024 12.6187 17.6619C11.7965 17.3213 11.0937 16.7445 10.5992 16.0045C10.1047 15.2644 9.84082 14.3944 9.84082 13.5044C9.84082 12.3109 10.3149 11.1663 11.1588 10.3224C12.0028 9.4785 13.1473 9.00439 14.3408 9.00439ZM14.3408 6.75439C13.0058 6.75439 11.7008 7.15027 10.5907 7.89197C9.48069 8.63367 8.61552 9.68788 8.10463 10.9213C7.59374 12.1547 7.46007 13.5119 7.72052 14.8213C7.98097 16.1306 8.62384 17.3334 9.56785 18.2774C10.5119 19.2214 11.7146 19.8642 13.024 20.1247C14.3333 20.3851 15.6905 20.2515 16.9239 19.7406C18.1573 19.2297 19.2115 18.3645 19.9532 17.2545C20.6949 16.1445 21.0908 14.8394 21.0908 13.5044C21.0903 11.7143 20.379 9.99776 19.1132 8.73201C17.8474 7.46625 16.1309 6.75492 14.3408 6.75439Z" fill="#44AFCB"/>
</svg>
