<svg width="12" height="12" viewBox="0 0 12 12" fill="none" xmlns="http://www.w3.org/2000/svg">
  <path d="M3.75 11C3.26667 11 2.85417 10.8292 2.5125 10.4875C2.17083 10.1458 2 9.73333 2 9.25V2.75C2 2.26667 2.17083 1.85417 2.5125 1.5125C2.85417 1.17083 3.26667 1 3.75 1H10V8.5C9.79167 8.5 9.61458 8.57292 9.46875 8.71875C9.32292 8.86458 9.25 9.04167 9.25 9.25C9.25 9.45833 9.32292 9.63542 9.46875 9.78125C9.61458 9.92708 9.79167 10 10 10V11H3.75ZM3 7.6625C3.11667 7.60417 3.2375 7.5625 3.3625 7.5375C3.4875 7.5125 3.61667 7.5 3.75 7.5H4V2H3.75C3.54167 2 3.36458 2.07292 3.21875 2.21875C3.07292 2.36458 3 2.54167 3 2.75V7.6625ZM5 7.5H9V2H5V7.5ZM3.75 10H8.4125C8.3625 9.88333 8.32292 9.76458 8.29375 9.64375C8.26458 9.52292 8.25 9.39167 8.25 9.25C8.25 9.11667 8.2625 8.9875 8.2875 8.8625C8.3125 8.7375 8.35417 8.61667 8.4125 8.5H3.75C3.53333 8.5 3.35417 8.57292 3.2125 8.71875C3.07083 8.86458 3 9.04167 3 9.25C3 9.46667 3.07083 9.64583 3.2125 9.7875C3.35417 9.92917 3.53333 10 3.75 10Z" fill="#768083"/>
</svg>
