<svg width="191" height="20" viewBox="0 0 191 20" fill="none" xmlns="http://www.w3.org/2000/svg">
<g id="Group">
<path id="Vector" d="M5.06185 19.2823C3.95528 19.2823 3.03714 19.0984 2.31947 18.7306C1.59778 18.3629 1.06054 17.8752 0.711724 17.2715C0.358903 16.6679 0.182495 16.0043 0.182495 15.2847C0.182495 14.0214 0.675638 13.022 1.66193 12.2865C2.64823 11.5509 4.05551 11.1831 5.88377 11.1831H9.31576V10.9473C9.31576 9.93188 9.03911 9.16833 8.48582 8.65663C7.93254 8.14893 7.21486 7.89309 6.33682 7.89309C5.56302 7.89309 4.88945 8.08098 4.31612 8.46075C3.74278 8.84052 3.39798 9.39619 3.27369 10.1318H0.475175C0.56338 9.18432 0.884125 8.3728 1.43741 7.6972C1.9907 7.0216 2.69635 6.50591 3.55033 6.14612C4.40432 5.78634 5.33849 5.60645 6.36088 5.60645C8.18913 5.60645 9.60443 6.08616 10.6108 7.04159C11.6131 7.99702 12.1143 9.30025 12.1143 10.9473V18.9705H9.68862L9.45208 16.7358C9.08322 17.4554 8.54597 18.059 7.84433 18.5508C7.13869 19.0425 6.21654 19.2863 5.07388 19.2863L5.06185 19.2823ZM5.61514 17.0197C6.3729 17.0197 7.01039 16.8398 7.52759 16.48C8.0448 16.1202 8.44974 15.6445 8.74242 15.0448C9.03109 14.4492 9.21152 13.7896 9.28368 13.07H6.16843C5.06185 13.07 4.27201 13.2619 3.80693 13.6497C3.34185 14.0374 3.1093 14.5172 3.1093 15.0968C3.1093 15.6765 3.33383 16.1642 3.78288 16.504C4.23192 16.8478 4.84134 17.0157 5.61514 17.0157V17.0197Z" fill="#262F31"/>
<path id="Vector_2" d="M15.1932 18.961V5.91274H17.699L17.9356 8.38727C18.3927 7.52778 19.0301 6.84818 19.848 6.34848C20.6659 5.84877 21.6563 5.59692 22.8149 5.59692V8.51919H22.0492C21.2754 8.51919 20.5858 8.64711 19.9763 8.89896C19.3709 9.15481 18.8858 9.58255 18.525 10.1902C18.1641 10.7938 17.9837 11.6333 17.9837 12.7047V18.965H15.1852L15.1932 18.961Z" fill="#262F31"/>
<path id="Vector_3" d="M30.8412 18.959C29.5583 18.959 28.5359 18.6472 27.7821 18.0236C27.0243 17.4 26.6475 16.2926 26.6475 14.6936V8.24941H24.4062V5.9068H26.6475L26.9923 2.59277H29.446V5.9068H33.1386V8.24941H29.446V14.6936C29.446 15.4132 29.5983 15.9089 29.9071 16.1807C30.2158 16.4525 30.745 16.5885 31.5028 16.5885H33.0063V18.9551H30.8412V18.959Z" fill="#262F31"/>
<path id="Vector_4" d="M40.7656 19.2808C39.1137 19.2808 37.7466 18.877 36.6761 18.0695C35.6016 17.262 34.9881 16.1906 34.8278 14.8594H37.6503C37.7907 15.4551 38.1234 15.9708 38.6527 16.3985C39.1819 16.8303 39.8755 17.0421 40.7375 17.0421C41.5995 17.0421 42.1969 16.8662 42.5858 16.5144C42.9707 16.1626 43.1672 15.7589 43.1672 15.3032C43.1672 14.6356 42.8985 14.1838 42.3613 13.948C41.824 13.7121 41.0823 13.4962 40.1321 13.3043C39.3944 13.1484 38.6567 12.9366 37.927 12.6727C37.1973 12.4089 36.5919 12.0371 36.1067 11.5534C35.6216 11.0697 35.381 10.4181 35.381 9.59455C35.381 8.45523 35.8221 7.50379 36.7001 6.74024C37.5782 5.9767 38.809 5.59692 40.3927 5.59692C41.8521 5.59692 43.0349 5.94872 43.941 6.6483C44.8471 7.35188 45.3803 8.33929 45.5367 9.62253H42.8464C42.7582 9.06286 42.4976 8.62313 42.0686 8.30731C41.6396 7.9915 41.0623 7.83559 40.3406 7.83559C39.6189 7.83559 39.0897 7.97951 38.7048 8.27134C38.3159 8.55916 38.1234 8.93494 38.1234 9.39067C38.1234 9.8464 38.3921 10.2062 38.9293 10.47C39.4666 10.7339 40.1722 10.9697 41.0543 11.1816C41.9323 11.3735 42.7462 11.5974 43.4959 11.8532C44.2417 12.1091 44.8471 12.4808 45.3042 12.9725C45.7612 13.4643 45.9897 14.1838 45.9897 15.1313C46.0058 16.3225 45.5447 17.314 44.6025 18.1055C43.6603 18.893 42.3813 19.2888 40.7616 19.2888L40.7656 19.2808Z" fill="#262F31"/>
<path id="Vector_5" d="M54.4444 19.2784C53.1774 19.2784 52.0588 18.9786 51.0926 18.3829C50.1263 17.7873 49.3685 16.9717 48.8233 15.9364C48.278 14.901 48.0054 13.7257 48.0054 12.4105C48.0054 11.0952 48.278 9.92394 48.8233 8.89655C49.3685 7.86916 50.1303 7.06563 51.1046 6.47798C52.0829 5.89033 53.2015 5.59451 54.4684 5.59451C55.5068 5.59451 56.417 5.79839 57.1988 6.19815C57.9806 6.60191 58.594 7.16957 59.031 7.90913V0.0178223H61.8296V18.9626H59.3237L59.0351 16.9358C58.6141 17.5514 58.0327 18.0951 57.295 18.5668C56.5573 19.0385 55.6071 19.2784 54.4444 19.2784ZM54.9455 16.8558C56.1403 16.8558 57.1226 16.4441 57.8884 15.6206C58.6542 14.797 59.0351 13.7337 59.0351 12.4384C59.0351 11.1432 58.6542 10.0559 57.8884 9.24034C57.1226 8.42483 56.1443 8.01707 54.9455 8.01707C53.7467 8.01707 52.7645 8.42483 51.9907 9.24034C51.2169 10.0559 50.8279 11.1232 50.8279 12.4384C50.8279 13.2979 51.0043 14.0615 51.3572 14.7291C51.71 15.3967 52.1951 15.9164 52.8206 16.2962C53.446 16.6719 54.1517 16.8638 54.9455 16.8638V16.8558Z" fill="#262F31"/>
<path id="Vector_6" d="M69.4193 19.2823C68.3127 19.2823 67.3946 19.0984 66.6769 18.7306C65.9552 18.3629 65.418 17.8752 65.0692 17.2715C64.7163 16.6679 64.5399 16.0043 64.5399 15.2847C64.5399 14.0214 65.0331 13.022 66.0194 12.2865C67.0057 11.5509 68.4129 11.1831 70.2412 11.1831H73.6732V10.9473C73.6732 9.93188 73.3965 9.16833 72.8433 8.65663C72.29 8.14893 71.5723 7.89309 70.6943 7.89309C69.9205 7.89309 69.2469 8.08098 68.6735 8.46075C68.1002 8.83653 67.7554 9.39619 67.6311 10.1318H64.8326C64.9208 9.18432 65.2416 8.3728 65.7948 7.6972C66.3481 7.0216 67.0538 6.50591 67.9038 6.14612C68.7577 5.78634 69.6919 5.60645 70.7143 5.60645C72.5426 5.60645 73.9579 6.08616 74.9642 7.04159C75.9665 7.99702 76.4677 9.30025 76.4677 10.9473V18.9705H74.0421L73.8055 16.7358C73.4366 17.4554 72.8994 18.059 72.1978 18.5508C71.4961 19.0425 70.57 19.2863 69.4273 19.2863L69.4193 19.2823ZM69.9726 17.0197C70.7303 17.0197 71.3678 16.8398 71.885 16.48C72.4022 16.1202 72.8072 15.6445 73.0999 15.0448C73.3885 14.4492 73.569 13.7896 73.6411 13.07H70.5259C69.4193 13.07 68.6294 13.2619 68.1644 13.6497C67.6993 14.0374 67.4667 14.5172 67.4667 15.0968C67.4667 15.6765 67.6913 16.1642 68.1403 16.504C68.5894 16.8438 69.1988 17.0157 69.9726 17.0157V17.0197Z" fill="#262F31"/>
<path id="Vector_7" d="M84.6793 18.959C83.3963 18.959 82.3739 18.6472 81.6201 18.0236C80.8624 17.4 80.4855 16.2926 80.4855 14.6936V8.24941H78.2443V5.9068H80.4855L80.8303 2.59277H83.284V5.9068H86.9766V8.24941H83.284V14.6936C83.284 15.4132 83.4364 15.9089 83.7451 16.1807C84.0538 16.4525 84.583 16.5885 85.3408 16.5885H86.8443V18.9551H84.6793V18.959Z" fill="#262F31"/>
<path id="Vector_8" d="M93.801 19.2823C92.6944 19.2823 91.7763 19.0984 91.0586 18.7306C90.3369 18.3629 89.7997 17.8752 89.4509 17.2715C89.098 16.6679 88.9216 16.0043 88.9216 15.2847C88.9216 14.0214 89.4148 13.022 90.4011 12.2865C91.3874 11.5509 92.7947 11.1831 94.6229 11.1831H98.0549V10.9473C98.0549 9.93188 97.7783 9.16833 97.225 8.65663C96.6717 8.14893 95.954 7.89309 95.076 7.89309C94.3022 7.89309 93.6286 8.08098 93.0553 8.46075C92.4819 8.83653 92.1371 9.39619 92.0128 10.1318H89.2143C89.3025 9.18432 89.6233 8.3728 90.1766 7.6972C90.7298 7.0216 91.4355 6.50591 92.2855 6.14612C93.1395 5.78634 94.0736 5.60645 95.096 5.60645C96.9243 5.60645 98.3396 6.08616 99.3459 7.04159C100.348 7.99702 100.849 9.30025 100.849 10.9473V18.9705H98.4238L98.1872 16.7358C97.8184 17.4554 97.2811 18.059 96.5795 18.5508C95.8778 19.0425 94.9517 19.2863 93.809 19.2863L93.801 19.2823ZM94.3543 17.0197C95.1121 17.0197 95.7495 16.8398 96.2667 16.48C96.7839 16.1202 97.1889 15.6445 97.4816 15.0448C97.7702 14.4492 97.9507 13.7896 98.0228 13.07H94.9076C93.801 13.07 93.0112 13.2619 92.5461 13.6497C92.081 14.0374 91.8485 14.5172 91.8485 15.0968C91.8485 15.6765 92.073 16.1642 92.522 16.504C92.9711 16.8438 93.5805 17.0157 94.3543 17.0157V17.0197Z" fill="#262F31"/>
<path id="Vector_9" d="M111.293 19.2784C110.274 19.2784 109.372 19.0785 108.586 18.6747C107.801 18.271 107.183 17.6993 106.726 16.9638L106.437 18.9626H103.932V0.0178223H106.73V7.93712C107.151 7.32148 107.732 6.7778 108.47 6.30608C109.208 5.83436 110.158 5.59451 111.321 5.59451C112.588 5.59451 113.702 5.89433 114.673 6.48998C115.639 7.08562 116.401 7.90114 116.954 8.93652C117.507 9.97191 117.784 11.1472 117.784 12.4624C117.784 13.7776 117.507 14.9489 116.954 15.9763C116.401 17.0037 115.639 17.8073 114.673 18.3949C113.706 18.9826 112.58 19.2784 111.297 19.2784H111.293ZM110.82 16.8558C112.014 16.8558 113.001 16.4481 113.774 15.6325C114.548 14.817 114.937 13.7497 114.937 12.4344C114.937 11.575 114.761 10.8114 114.408 10.1438C114.055 9.4762 113.574 8.95651 112.957 8.57673C112.339 8.20096 111.629 8.00907 110.82 8.00907C109.625 8.00907 108.642 8.42083 107.877 9.24434C107.111 10.0679 106.73 11.1312 106.73 12.4264C106.73 13.7217 107.111 14.809 107.877 15.6245C108.642 16.4401 109.621 16.8478 110.82 16.8478V16.8558Z" fill="#262F31"/>
<path id="Vector_10" d="M124.701 19.2823C123.594 19.2823 122.676 19.0984 121.958 18.7306C121.236 18.3629 120.699 17.8752 120.35 17.2715C119.998 16.6679 119.821 16.0043 119.821 15.2847C119.821 14.0214 120.314 13.022 121.301 12.2865C122.287 11.5509 123.694 11.1831 125.522 11.1831H128.954V10.9473C128.954 9.93188 128.678 9.16833 128.125 8.65663C127.571 8.14893 126.854 7.89309 125.976 7.89309C125.202 7.89309 124.528 8.08098 123.955 8.46075C123.381 8.83653 123.037 9.39619 122.912 10.1318H120.114C120.202 9.18432 120.523 8.3728 121.076 7.6972C121.629 7.0216 122.335 6.50591 123.185 6.14612C124.039 5.78634 124.973 5.60645 125.996 5.60645C127.824 5.60645 129.239 6.08616 130.245 7.04159C131.248 7.99702 131.749 9.30025 131.749 10.9473V18.9705H129.323L129.087 16.7358C128.718 17.4554 128.181 18.059 127.479 18.5508C126.777 19.0425 125.851 19.2863 124.709 19.2863L124.701 19.2823ZM125.254 17.0197C126.012 17.0197 126.649 16.8398 127.166 16.48C127.683 16.1202 128.088 15.6445 128.381 15.0448C128.67 14.4492 128.85 13.7896 128.922 13.07H125.807C124.701 13.07 123.911 13.2619 123.446 13.6497C122.981 14.0374 122.748 14.5172 122.748 15.0968C122.748 15.6765 122.973 16.1642 123.422 16.504C123.871 16.8438 124.48 17.0157 125.254 17.0157V17.0197Z" fill="#262F31"/>
<path id="Vector_11" d="M134.832 18.9665V5.91826H137.314L137.526 8.2089C137.931 7.40138 138.525 6.76576 139.306 6.30203C140.088 5.83831 140.99 5.60645 142.013 5.60645C143.596 5.60645 144.839 6.09815 145.745 7.08157C146.652 8.06498 147.105 9.52811 147.105 11.475V18.9745H144.334V11.7668C144.334 9.24028 143.296 7.97704 141.219 7.97704C140.18 7.97704 139.322 8.34482 138.645 9.08038C137.967 9.81594 137.631 10.8713 137.631 12.2385V18.9745H134.832V18.9665Z" fill="#262F31"/>
<path id="Vector_12" d="M150.188 18.9626V0.0178223H152.986V11.3031L157.998 5.91032H161.35L155.781 11.8308L162.168 18.9626H158.631L152.986 12.2785V18.9626H150.188Z" fill="#262F31"/>
<path id="Vector_13" d="M168.964 19.2808C167.681 19.2808 166.542 18.997 165.548 18.4253C164.553 17.8576 163.776 17.0621 163.214 16.0427C162.649 15.0273 162.368 13.84 162.368 12.4928C162.368 11.1456 162.645 9.92235 163.198 8.88697C163.752 7.85159 164.525 7.04407 165.52 6.46441C166.514 5.88476 167.669 5.59692 168.988 5.59692C170.307 5.59692 171.389 5.88075 172.34 6.45242C173.29 7.02408 174.028 7.77963 174.557 8.72706C175.086 9.6745 175.347 10.7179 175.347 11.8572C175.347 12.0331 175.343 12.221 175.335 12.4249C175.327 12.6247 175.311 12.8486 175.294 13.0965H165.111C165.199 14.3597 165.616 15.3191 166.366 15.9788C167.111 16.6384 167.977 16.9662 168.964 16.9662C169.754 16.9662 170.419 16.7863 170.956 16.4265C171.494 16.0667 171.895 15.579 172.159 14.9674H174.958C174.605 16.1946 173.907 17.222 172.861 18.0455C171.814 18.869 170.515 19.2808 168.968 19.2808H168.964ZM168.964 7.88756C168.03 7.88756 167.204 8.1634 166.482 8.71507C165.76 9.26674 165.319 10.0982 165.163 11.2016H172.552C172.5 10.1862 172.139 9.37868 171.47 8.77903C170.8 8.18339 169.966 7.88357 168.964 7.88357V7.88756Z" fill="#262F31"/>
<path id="Vector_14" d="M177.92 18.9665V5.91826H180.402L180.615 8.2089C181.02 7.40138 181.613 6.76576 182.395 6.30203C183.177 5.83831 184.079 5.60645 185.101 5.60645C186.685 5.60645 187.928 6.09815 188.834 7.08157C189.74 8.06498 190.193 9.52811 190.193 11.475V18.9745H187.422V11.7668C187.422 9.24028 186.384 7.97704 184.307 7.97704C183.269 7.97704 182.411 8.34482 181.733 9.08038C181.056 9.81594 180.719 10.8713 180.719 12.2385V18.9745H177.92V18.9665Z" fill="#262F31"/>
</g>
</svg>
