<svg width="29" height="28" viewBox="0 0 29 28" fill="none" xmlns="http://www.w3.org/2000/svg">
<g id="Group">
<path id="Vector" d="M14.8067 27.7925C7.18499 27.7925 0.982544 21.6081 0.982544 14.0087C0.982544 6.40918 7.18499 0.224854 14.8067 0.224854C22.4285 0.224854 28.6309 6.40918 28.6309 14.0087H25.1428C25.1428 8.32804 20.508 3.70679 14.8107 3.70679C9.11348 3.70679 4.47868 8.32804 4.47868 14.0087C4.47868 19.6893 9.11348 24.3145 14.8107 24.3145V27.7925H14.8067Z" fill="#262F31"/>
<path id="Vector_2" d="M28.631 27.7936H19.1449V24.3476H25.1749V18.3352H28.631V27.7936Z" fill="#E55440"/>
<path id="Vector_3" d="M18.7037 16.1755C19.9017 16.1755 20.8728 15.2072 20.8728 14.0128C20.8728 12.8184 19.9017 11.8501 18.7037 11.8501C17.5058 11.8501 16.5347 12.8184 16.5347 14.0128C16.5347 15.2072 17.5058 16.1755 18.7037 16.1755Z" fill="#262F31"/>
</g>
</svg>
