<svg xmlns="http://www.w3.org/2000/svg" width="24" height="24" viewBox="0 0 24 24" fill="none"><path fill="currentColor" d="M7 15v2h14v-2zm0-4v2h14v-2zm0-4v2h14V7zm-3 8a.97.97 0 0 0-.712.287A.97.97 0 0 0 3 16q0 .424.288.712Q3.575 17 4 17q.424 0 .713-.288A.97.97 0 0 0 5 16a.97.97 0 0 0-.287-.713A.97.97 0 0 0 4 15m0-4a.97.97 0 0 0-.712.287A.97.97 0 0 0 3 12q0 .424.288.713Q3.575 13 4 13q.424 0 .713-.287A.97.97 0 0 0 5 12a.97.97 0 0 0-.287-.713A.97.97 0 0 0 4 11m0-4a.97.97 0 0 0-.712.287A.97.97 0 0 0 3 8q0 .424.288.713Q3.575 9 4 9q.424 0 .713-.287A.97.97 0 0 0 5 8a.97.97 0 0 0-.287-.713A.97.97 0 0 0 4 7"/></svg>