<svg class="logomark" xmlns="http://www.w3.org/2000/svg" width="159" height="20" fill="none"><path fill="currentColor" d="M10.149 19.364c-5.332 0-9.672-4.343-9.672-9.679S4.817.007 10.15.007s9.67 4.342 9.67 9.678h-2.44c0-3.989-3.242-7.234-7.228-7.234S2.923 5.696 2.923 9.686s3.243 7.237 7.228 7.237v2.442z"/><path fill="#E55440" d="M19.82 19.365h-6.636v-2.42h4.218v-4.222h2.418z"/><path fill="currentColor" d="M12.875 11.207a1.518 1.518 0 1 0-.001-3.036 1.518 1.518 0 0 0 0 3.036M29.216 19.708c-.774 0-1.416-.13-1.918-.388q-.758-.388-1.125-1.024a2.7 2.7 0 0 1-.37-1.395q0-1.331 1.035-2.106t2.953-.774h2.401v-.166q0-1.07-.58-1.609-.583-.535-1.504-.536-.811 0-1.414.399-.6.4-.729 1.173h-1.958q.093-.997.673-1.71a3.76 3.76 0 0 1 1.479-1.088 5 5 0 0 1 1.966-.38q1.918.001 2.973 1.009 1.052 1.006 1.052 2.742v5.634h-1.697l-.166-1.57q-.387.758-1.124 1.275-.74.517-1.939.516zm.387-1.59q.795 0 1.338-.378t.85-1.008q.303-.628.379-1.387h-2.18q-1.162 0-1.652.407-.488.408-.488 1.017c0 .407.157.75.471.988q.47.36 1.282.359zM36.304 19.482V10.32h1.753l.165 1.737q.48-.905 1.338-1.431.859-.527 2.076-.528v2.052H41.1q-.81 0-1.45.267-.636.269-1.015.906-.38.637-.379 1.766v4.396h-1.958zM47.251 19.48q-1.348 0-2.14-.656-.794-.656-.794-2.338V11.96H42.75v-1.645h1.568l.241-2.327h1.717v2.327h2.583v1.645h-2.583v4.525q0 .758.322 1.044.323.285 1.117.286h1.052v1.662H47.25zM54.194 19.707q-1.736 0-2.861-.851c-.752-.567-1.18-1.32-1.293-2.254h1.975q.146.628.7 1.08.555.454 1.46.453c.602 0 1.02-.124 1.292-.37q.406-.371.407-.851 0-.704-.564-.952-.562-.25-1.56-.452a12 12 0 0 1-1.542-.443 3.4 3.4 0 0 1-1.273-.786q-.509-.51-.508-1.376.001-1.2.923-2.004.921-.803 2.583-.803 1.532 0 2.482.738.952.74 1.117 2.089H55.65a1.37 1.37 0 0 0-.544-.924q-.451-.33-1.21-.33c-.504 0-.874.1-1.144.305a.94.94 0 0 0-.406.786q0 .48.563.758.563.276 1.487.5.921.202 1.708.471.784.268 1.265.786.48.517.48 1.516.017 1.255-.97 2.088-.99.83-2.688.831zM63.764 19.705q-1.331 0-2.345-.629a4.36 4.36 0 0 1-1.588-1.718q-.572-1.09-.572-2.476 0-1.384.572-2.467a4.3 4.3 0 0 1 1.596-1.698q1.025-.62 2.353-.62 1.09.002 1.91.423c.547.284.977.682 1.282 1.202V6.18h1.958v13.302h-1.753l-.202-1.423q-.442.648-1.217 1.145-.774.499-1.994.5m.35-1.701q1.255 0 2.059-.867.803-.87.802-2.235c0-.91-.266-1.673-.802-2.245q-.802-.86-2.059-.86t-2.067.86q-.812.86-.813 2.245 0 .906.37 1.609.368.7 1.023 1.1.656.397 1.487.398zM74.24 19.708c-.774 0-1.417-.13-1.919-.388q-.757-.388-1.125-1.024a2.7 2.7 0 0 1-.37-1.395q0-1.331 1.035-2.106t2.954-.774h2.4v-.166q0-1.07-.58-1.609-.582-.535-1.503-.536-.813 0-1.414.399-.6.397-.73 1.173h-1.957q.093-.997.673-1.71a3.8 3.8 0 0 1 1.476-1.088 5 5 0 0 1 1.966-.38q1.918.001 2.973 1.009 1.052 1.006 1.052 2.742v5.634h-1.697l-.166-1.57q-.388.758-1.125 1.275t-1.938.516zm.387-1.59q.795 0 1.338-.378.542-.378.85-1.008.302-.628.378-1.387h-2.18c-.773 0-1.326.135-1.651.407q-.489.408-.488 1.017c0 .407.157.75.471.988q.47.358 1.282.359zM84.915 19.48q-1.347 0-2.14-.656t-.794-2.338V11.96h-1.567v-1.645h1.567l.242-2.327h1.716v2.327h2.584v1.645h-2.584v4.525q0 .758.323 1.044.322.285 1.116.286h1.052v1.662h-1.515zM91.297 19.708c-.774 0-1.417-.13-1.919-.388q-.757-.388-1.124-1.024a2.7 2.7 0 0 1-.37-1.395q0-1.331 1.034-2.106t2.954-.774h2.4v-.166q0-1.07-.58-1.609-.581-.535-1.503-.536-.812 0-1.414.399-.599.397-.73 1.173h-1.957q.093-.997.673-1.71a3.8 3.8 0 0 1 1.476-1.088 5 5 0 0 1 1.966-.38q1.918.001 2.973 1.009 1.052 1.006 1.052 2.742v5.634H94.53l-.166-1.57q-.387.758-1.124 1.275c-.491.345-1.14.516-1.939.516zm.387-1.59q.795 0 1.338-.378t.85-1.008q.303-.628.378-1.387h-2.179q-1.163 0-1.652.407-.488.408-.488 1.017c0 .407.157.75.471.988q.47.358 1.282.359zM103.534 19.705q-1.07.001-1.893-.424a3.26 3.26 0 0 1-1.302-1.201l-.202 1.403h-1.753V6.181h1.958v5.56q.442-.648 1.217-1.145.774-.498 1.994-.5 1.33 0 2.345.63 1.015.626 1.596 1.717.58 1.09.581 2.476 0 1.385-.581 2.467a4.37 4.37 0 0 1-1.596 1.698q-1.015.62-2.361.62zm-.331-1.701q1.255 0 2.067-.86.812-.858.813-2.245 0-.905-.37-1.608a2.8 2.8 0 0 0-1.015-1.1c-.432-.264-.929-.4-1.495-.4q-1.255 0-2.059.868-.803.87-.802 2.235c0 .91.266 1.673.802 2.245q.802.86 2.059.86zM112.914 19.708c-.774 0-1.417-.13-1.919-.388q-.757-.388-1.125-1.024a2.73 2.73 0 0 1-.37-1.395q0-1.331 1.035-2.106t2.954-.774h2.401v-.166q0-1.07-.581-1.609-.581-.535-1.503-.536-.813 0-1.414.399-.6.397-.729 1.173h-1.958q.093-.997.673-1.71a3.8 3.8 0 0 1 1.476-1.088 5 5 0 0 1 1.966-.38q1.918.001 2.973 1.009 1.052 1.006 1.052 2.742v5.634h-1.697l-.166-1.57q-.388.758-1.124 1.275-.738.517-1.939.516zm.387-1.59q.795 0 1.338-.378t.85-1.008a4.1 4.1 0 0 0 .378-1.387h-2.179q-1.163 0-1.652.407-.489.408-.488 1.017c0 .407.157.75.471.988q.47.358 1.282.359zM120.002 19.486v-9.162h1.736l.149 1.608a3.2 3.2 0 0 1 1.245-1.339q.82-.488 1.893-.488 1.661 0 2.612 1.035.95 1.036.95 3.085v5.266h-1.938v-5.06q0-2.662-2.179-2.662-1.09 0-1.801.775-.71.776-.71 2.218v4.73h-1.957zM130.744 19.483V6.181h1.958v7.924l3.506-3.787h2.345l-3.896 4.157 4.468 5.008h-2.474l-3.949-4.693v4.693zM143.88 19.707q-1.346 0-2.39-.601a4.23 4.23 0 0 1-1.632-1.673c-.396-.713-.592-1.547-.592-2.493s.193-1.805.58-2.532a4.24 4.24 0 0 1 1.624-1.7q1.043-.611 2.427-.61c.922 0 1.68.2 2.345.6q.995.602 1.551 1.598.553.998.552 2.198 0 .184-.008.399-.01.21-.028.471h-7.125q.093 1.33.878 2.024a2.65 2.65 0 0 0 1.818.693q.829 0 1.394-.379.564-.38.841-1.024h1.958a4.16 4.16 0 0 1-1.467 2.161q-1.099.867-2.723.868zm0-8a2.77 2.77 0 0 0-1.736.58q-.758.583-.923 1.747h5.169q-.054-1.07-.757-1.702-.702-.627-1.753-.628zM150.146 19.486v-9.162h1.736l.149 1.608a3.2 3.2 0 0 1 1.245-1.339q.82-.488 1.893-.488 1.662 0 2.612 1.035.95 1.036.95 3.085v5.266h-1.938v-5.06q0-2.662-2.179-2.662-1.09 0-1.801.775-.71.776-.71 2.218v4.73h-1.957z"/></svg>