<svg xmlns="http://www.w3.org/2000/svg" width="32" height="33" viewBox="0 0 32 33" fill="none"><path fill="currentColor" d="m14.6 18.087 6.6-6.6-1.9-1.9-4.7 4.7-1.867-1.867-1.9 1.9zm1.4 8q4.066-3.734 6.033-6.784T24 13.886q0-3.633-2.317-5.95Q19.367 5.62 16 5.62t-5.684 2.316T8 13.886q0 2.367 1.966 5.417 1.968 3.05 6.034 6.784m0 3.533q-5.367-4.567-8.017-8.483t-2.65-7.25q0-5.001 3.217-7.967Q11.766 2.953 16 2.953q4.233 0 7.45 2.967 3.216 2.966 3.216 7.967 0 3.333-2.65 7.25Q21.367 25.052 16 29.62"/></svg>