<svg xmlns="http://www.w3.org/2000/svg" width="24" height="24" fill="none"><g clip-path="url(#a1)"><path fill="currentColor" fill-rule="evenodd" d="M3 16v2h9.719v-2zm0-5v2h9v-2zm0-5v2h18V6zm16.56 10.662 3.24 3.25 1.2-1.187-3.262-3.275q.249-.362.393-.838a3.7 3.7 0 0 0 .144-1.062q0-1.521-1.062-2.586T17.628 9.9t-2.588 1.062-1.065 2.585 1.064 2.588 2.586 1.065q.575 0 1.075-.15t.86-.388m-.546-1.718q-.562.555-1.394.556-.832 0-1.389-.556-.555-.556-.556-1.389 0-.833.556-1.394t1.389-.561 1.394.561.561 1.394-.561 1.389" clip-rule="evenodd"/></g><defs><clipPath id="a1"><path fill="#fff" d="M0 0h24v24H0z"/></clipPath></defs></svg>